<svg xmlns="http://www.w3.org/2000/svg" viewBox="0 0 132.05 128.49"><defs><style>.cls-1{fill:#102c66;}.cls-2{fill:#0080c9;}.cls-3{fill:#009640;}.cls-4{fill:#fbba00;}.cls-5{fill:#e30613;}</style></defs><g id="Layer_2" data-name="Layer 2"><g id="Layer_1-2" data-name="Layer 1"><path class="cls-1" d="M79.75,2.21v28c-11.9-5.3-29.5-4.9-39.3,4.6-10.8,9.4-14.1,24-11.6,38.5,2.3,13,13,25.5,26.2,28,8.8,1.7,17.7-.1,25.4-2.8l.3,27.6c-24.9,6.5-51.6-.3-67.1-20.1-16.1-19.7-18-53.1-5.5-75.3C20,9.41,43.85-2.39,69,.41,72.55,1,76.35,1.21,79.75,2.21Z"/><path class="cls-2" d="M123.85,49c-7.6,3.8-16.8.9-23.6-2.3-8.4-3-16.3,1.3-23.7,3.8-10.2,2.6-17-5.5-27-4.5L55,35c7,.5,13,5.8,20.7,4,7.2-1.5,13.4-6.3,21.3-4.7,8,2.1,16.2,7.2,25.2,3.5,3.5-1.1,6.5-2.9,9.9-4.5Z"/><path class="cls-3" d="M120.05,52.41c.8.1,1.4-.5,2.2-.5l-6.4,12.2c-9.6.9-16.3-6.3-26.1-4.2-8,2.1-16.2,7.8-25,3.5-8.6-5.2-20.1-4.1-28.8-.1L42.45,50c7.5-3.5,16.4-1,23.5,2.3,9.9,3.6,17.3-3.5,26.3-4.4C102.55,47.21,109.65,55.71,120.05,52.41Z"/><path class="cls-4" d="M114.55,66.31c-1.7,3.7-3.8,7.2-5.7,10.8-7.8-2.7-16.5-5.6-24.7-1.7-6.2,3.4-15,4.6-21.7,1a29.06,29.06,0,0,0-23.3-.7c1.6-4.2,4.3-8.5,6.2-12.8,9.3-3.6,16.7,3.4,25.5,4.1,11,.5,19.7-9.1,30.8-3.5C105.75,64.91,109.85,66.31,114.55,66.31Z"/><path class="cls-5" d="M107.85,79.31l-5.3,9.8c-4.1-1.3-9.4-2.7-14.1-1.3C82,89.71,75.85,94,68.15,92c-7.4-2.6-15.6-6.6-23.8-3.9l6-12.3c9.8-.7,16.6,7.4,26.6,4.5,6.6-1.7,12.4-6.3,20.1-4.5A71.83,71.83,0,0,1,107.85,79.31Z"/></g></g></svg>